# xmcd
#
# Track frame offsets:
#	150
#	21220
#	38325
#	58469
#	86719
#	105319
#	127820
#	154737
#	165362
#	184054
#	207739
#	223789
#	235789
#	261102
#	281481
#	300221
#	322457
#
# Disc length: 4676 seconds
#
# Revision: 0
# Processed by: cddbd v1.5.2PL0 Copyright (c) Steve Scherf et al.
# Submitted via: EasyCDDAExtractor 11.9.9.666
#
DISCID=e9124211
DTITLE=Various Artist - Fear Candy 47A
DYEAR=1900
DGENRE=Metal
TTITLE0=Arch Enemy - Blood On Your Hands
TTITLE1=Down - I Scream
TTITLE2=Opeth - Bleak (Edit)
TTITLE3=Sear Bliss  - A Deathly Illusion
TTITLE4=Dam - This Has Nothing To Do With Apathy
TTITLE5=Blut Aus Nord  - A Few Shreds Of Thoughts
TTITLE6=Prong - The Banishment
TTITLE7=Agnostic Front - Addiction
TTITLE8=My Own Grave - Cross After Cross
TTITLE9=Portal - Omnipotent Crawling Chaos
TTITLE10=Tyrant - The Rebirth...(Claim The Flame)
TTITLE11=Skeletonwitch - Upon Wings Of Black
TTITLE12=Infected Malignity - SND
TTITLE13=Descent - Nothing s Changed
TTITLE14=Dave Slave s Doomed And Disgusting - We Are The Dead/Torture Chamber
TTITLE15=Christian Death - Angels and Drugs
TTITLE16=Autumn Tears  - Dies Irae (Edit)
EXTD=
EXTT0=
EXTT1=
EXTT2=
EXTT3=
EXTT4=
EXTT5=
EXTT6=
EXTT7=
EXTT8=
EXTT9=
EXTT10=
EXTT11=
EXTT12=
EXTT13=
EXTT14=
EXTT15=
EXTT16=
PLAYORDER=
